<?xml version="1.0" encoding="utf-8"?>
<!-- Generator: Adobe Illustrator 23.0.3, SVG Export Plug-In . SVG Version: 6.00 Build 0)  -->
<svg version="1.1" id="Capa_1" xmlns="http://www.w3.org/2000/svg" xmlns:xlink="http://www.w3.org/1999/xlink" x="0px" y="0px"
	 viewBox="0 0 1200 1200" enable-background="new 0 0 1200 1200" xml:space="preserve">
<path fill="#232323" d="M543.447,987.26C375.109,905.322,50,739.681,50,700.014c0-92.211,79.851-92.211,79.851-92.211l3.893-0.232
	c-1.7,18.223-2.657,37.196-2.657,56.963c0,6.386,2.014,12.608,5.756,17.783c2.104,2.909,20.772,31.099,69.288,61.824
	c181.636,115.03,406.961,122.644,406.961,122.644s11.855,5.783,16.118,8.053c12.417,6.612,34.501,17.704,47.906,21.927
	c8.986,2.841,12.739,1.183,21.888,0.349c18.86-1.719,45.024-4.953,81.14-12.585c74.832-15.812,137.176-40.765,185.3-74.164
	c8.348-5.794,13.242-15.381,13.039-25.541c-0.029-1.455-0.292-12.453-1.645-30.598c3.042-1.07,5.931-2.62,8.538-4.644
	c39.229-30.452,55.188-79.198,56.879-84.657c1.441-4.653,1.742-9.585,0.875-14.379c-3.071-16.986-6.273-32.701-9.578-47.406
	c46.057,55.113,104.937,130.386,112.684,163.388c15.503,66.045-18.26,134.057-75.918,152.558l-282.247,86.224
	c-32.73,10.501-66.326,15.717-99.854,15.717C638.802,1021.026,589.539,1009.696,543.447,987.26z M832.826,312.512
	c41.451,57.425,75.052,127.259,100.132,208.512c23.9,77.429,35.281,149.508,40.685,198.716
	c27.849-25.834,39.622-63.795,39.622-63.795c-29.882-165.266-70.067-208.571-110.942-268.647
	C883.048,358.968,859.335,334.597,832.826,312.512z M584.168,178.974c-48.727,0-135.713,10.769-178.079,35.085
	c25.71,1.411,68.389,9.756,113.079,44.249c57.078,44.054,101.492,117.692,132.01,218.87c0.057,0.19,0.113,0.381,0.167,0.572
	c2.605,9.292,63.301,227.649,64.303,386.929c16.237-2.076,36.198-5.19,58.221-9.844c54.109-11.433,120.568-32.132,174.271-69.403
	c0,0-2.407-120.119-44.181-255.456c-25.898-83.901-66.944-173.636-131.911-244.241c-42.388-46.067-96.902-85.794-157.228-104.131
	C609.131,179.873,598.242,178.974,584.168,178.974z M161.436,664.534c0,0,17.463,24.151,61.852,54.573
	c65,44.548,187.739,102.545,397.957,117.855l64.078,31.682c-0.002-157.256-63.2-382.703-63.2-382.703
	C555.59,265.36,439.564,244.16,397.422,244.16c-9.948,0-15.777,1.181-15.868,1.2c-38.96,21.489-73.608,49.831-102.328,83.396
	l-0.003-0.004C279.223,328.752,161.436,448.503,161.436,664.534z"/>
</svg>
