<?xml version="1.0" encoding="UTF-8"?>
<svg xmlns="http://www.w3.org/2000/svg" xmlns:xlink="http://www.w3.org/1999/xlink" width="150px" height="91px" viewBox="0 0 150 91" version="1.1">
<g id="surface1">
<path style=" stroke:none;fill-rule:nonzero;fill:rgb(100%,100%,100%);fill-opacity:1;" d="M 75 15.371094 C 85.628906 15.371094 94.300781 23.261719 94.300781 32.9375 C 94.300781 42.609375 85.628906 50.5 75 50.5 C 64.371094 50.5 55.699219 42.609375 55.699219 32.933594 C 55.699219 23.261719 64.371094 15.371094 75 15.371094 "/>
<path style="fill:none;stroke-width:0.4;stroke-linecap:butt;stroke-linejoin:miter;stroke:rgb(13.725491%,12.156863%,12.54902%);stroke-opacity:1;stroke-miterlimit:2.613;" d="M 59.998564 103.481132 C 69.459985 103.481132 77.179336 95.762545 77.179336 86.297723 C 77.179336 76.836722 69.459985 69.118135 59.998564 69.118135 C 50.537143 69.118135 42.817792 76.836722 42.817792 86.301544 C 42.817792 95.762545 50.537143 103.481132 59.998564 103.481132 Z M 59.998564 103.481132 " transform="matrix(1.123394,0,0,-1.022289,7.597957,121.158695)"/>
<path style=" stroke:none;fill-rule:nonzero;fill:rgb(13.725491%,12.156863%,12.54902%);fill-opacity:1;" d="M 88.054688 38.230469 L 86.75 40.371094 L 87.273438 40.636719 L 88.246094 39.039062 L 91.246094 40.566406 L 91.578125 40.015625 Z M 89.152344 34.695312 L 89.046875 35.339844 L 89.972656 35.882812 L 89.523438 37.257812 L 88.433594 37.320312 L 88.1875 37.945312 L 92.515625 37.675781 L 92.714844 37.035156 Z M 91.96875 37.171875 L 91.964844 37.183594 L 91.964844 37.1875 L 90.078125 37.230469 L 90.421875 36.179688 Z M 89.199219 31.523438 L 89.234375 32.121094 L 92.152344 31.976562 L 92.152344 31.992188 L 89.238281 33.746094 L 89.203125 34.410156 L 93.171875 34.714844 L 93.242188 34.035156 L 90.261719 33.855469 L 90.261719 33.816406 L 93.273438 32.046875 L 93.222656 31.335938 Z M 92.15625 28.707031 C 92.382812 29.429688 91.734375 29.980469 91 30.152344 C 90.269531 30.320312 89.480469 30.210938 89.265625 29.484375 C 89.046875 28.742188 89.683594 28.21875 90.40625 28.019531 C 91.125 27.820312 91.925781 27.96875 92.15625 28.707031 Z M 92.699219 28.546875 C 92.378906 27.519531 91.277344 27.089844 90.203125 27.421875 C 89.136719 27.746094 88.417969 28.597656 88.726562 29.632812 C 89.03125 30.640625 90.105469 30.992188 91.1875 30.726562 C 92.285156 30.457031 93.015625 29.566406 92.699219 28.546875 Z M 87.734375 27.066406 L 88.023438 27.632812 L 91.660156 26.070312 L 91.371094 25.503906 Z M 88.796875 22.890625 L 89.449219 23.75 L 86.648438 25.460938 L 87.023438 25.984375 L 89.824219 24.28125 L 90.535156 25.222656 L 91.046875 24.953125 L 89.269531 22.558594 Z M 83.828125 22.722656 L 84.386719 23.148438 L 85.378906 22.671875 L 86.488281 23.695312 L 86.007812 24.6875 L 86.464844 25.207031 L 88.246094 21.464844 L 87.710938 21 Z M 87.503906 21.667969 L 87.515625 21.675781 L 87.515625 21.679688 L 86.714844 23.234375 L 85.875 22.4375 Z M 80.910156 21.097656 L 81.515625 21.359375 L 82.871094 19.039062 L 82.886719 19.046875 L 83.101562 22.230469 L 83.667969 22.613281 L 85.820312 19.542969 L 85.273438 19.152344 L 83.671875 21.421875 L 83.464844 18.175781 L 82.796875 17.875 Z M 77.476562 20.121094 L 78.105469 20.25 L 78.550781 18.816406 L 79.570312 19.074219 C 80.179688 19.226562 80.191406 19.550781 79.992188 20.179688 C 79.941406 20.347656 79.882812 20.550781 79.9375 20.726562 L 80.632812 20.988281 C 80.53125 20.8125 80.601562 20.335938 80.726562 19.9375 C 80.898438 19.390625 80.652344 19.152344 80.433594 19.0625 L 80.4375 19.054688 C 80.570312 19.046875 81.089844 19.011719 81.292969 18.347656 C 81.480469 17.765625 81.207031 17.25 80.375 17.042969 L 78.554688 16.582031 Z M 79.0625 17.246094 L 80.152344 17.515625 C 80.5 17.601562 80.746094 17.824219 80.605469 18.261719 C 80.492188 18.625 80.246094 18.746094 79.824219 18.640625 L 78.699219 18.359375 Z M 74.222656 19.964844 L 77.09375 20.058594 L 77.105469 19.519531 L 74.921875 19.433594 L 74.957031 18.335938 L 76.941406 18.378906 L 76.949219 17.867188 L 74.96875 17.824219 L 74.984375 16.847656 L 77.113281 16.945312 L 77.121094 16.402344 L 74.308594 16.292969 Z M 70.492188 17.394531 L 71.667969 17.214844 L 72.183594 20.175781 L 72.863281 20.078125 L 72.347656 17.105469 L 73.574219 16.914062 L 73.507812 16.34375 L 70.324219 16.835938 Z M 68.320312 21.445312 L 68.894531 21.191406 L 67.730469 18.761719 L 67.746094 18.757812 L 70.40625 20.617188 L 71.101562 20.429688 L 69.878906 16.960938 L 69.226562 17.132812 L 70.109375 19.722656 L 70.074219 19.722656 L 67.371094 17.800781 L 66.707031 18.109375 Z M 67.191406 22.0625 L 67.777344 21.730469 L 65.664062 18.628906 L 65.078125 18.960938 Z M 63.21875 25.570312 L 65.046875 23.609375 L 64.632812 23.21875 L 63.238281 24.742188 L 62.335938 24.019531 L 63.574219 22.636719 L 63.183594 22.28125 L 61.894531 23.664062 L 61.105469 23.011719 L 62.496094 21.570312 L 62.070312 21.160156 L 60.222656 23.148438 Z M 58.734375 26.609375 L 59.320312 25.597656 L 62.1875 27.21875 L 62.515625 26.667969 L 59.660156 25.046875 L 60.273438 24.027344 L 59.773438 23.746094 L 58.179688 26.382812 Z M 61.476562 28.832031 L 61.714844 28.242188 L 57.945312 26.964844 L 57.707031 27.558594 Z M 60.710938 32.871094 L 60.738281 32.304688 L 57.753906 32.058594 L 60.84375 31.351562 L 60.898438 30.839844 L 58.046875 29.292969 L 61.128906 29.835938 L 61.285156 29.277344 L 57.316406 28.566406 L 57.128906 29.40625 L 60.019531 30.964844 L 60.015625 30.972656 L 56.765625 31.628906 L 56.71875 32.585938 Z M 57.390625 35.035156 C 57.292969 34.265625 57.964844 33.917969 58.710938 33.847656 C 59.472656 33.769531 60.261719 34.015625 60.367188 34.773438 C 60.476562 35.546875 59.753906 35.902344 59.007812 36.007812 C 58.261719 36.117188 57.484375 35.800781 57.390625 35.035156 Z M 56.820312 35.117188 C 56.957031 36.179688 58.035156 36.789062 59.144531 36.628906 C 60.257812 36.46875 61.082031 35.765625 60.921875 34.695312 C 60.765625 33.632812 59.804688 33.191406 58.691406 33.25 C 57.570312 33.3125 56.683594 34.046875 56.820312 35.117188 Z M 58.71875 37.367188 C 57.96875 37.746094 57.671875 38.589844 58.042969 39.289062 C 58.554688 40.316406 59.726562 40.589844 60.753906 40.171875 C 61.785156 39.753906 62.382812 38.835938 61.886719 37.863281 C 61.507812 37.125 60.695312 36.789062 59.785156 37.046875 L 60.007812 37.605469 C 60.554688 37.4375 61.132812 37.605469 61.382812 38.113281 C 61.726562 38.8125 61.117188 39.339844 60.429688 39.617188 C 59.738281 39.898438 58.933594 39.808594 58.589844 39.105469 C 58.355469 38.628906 58.570312 38.238281 58.933594 37.976562 M 83.96875 47.484375 L 86.300781 46.027344 L 85.96875 45.574219 L 84.203125 46.6875 L 83.542969 45.796875 L 85.140625 44.765625 L 84.824219 44.335938 L 83.226562 45.367188 L 82.628906 44.53125 L 84.378906 43.433594 L 84.042969 42.980469 L 81.726562 44.417969 M 80.96875 48.71875 L 81.679688 48.480469 L 81.445312 44.542969 L 80.816406 44.800781 L 81.042969 47.886719 L 81.035156 47.890625 L 78.941406 45.421875 L 78.269531 45.601562 M 75.863281 49.574219 L 78.671875 49.269531 L 78.550781 48.746094 L 76.445312 48.960938 L 76.300781 47.863281 L 78.144531 47.664062 L 78.03125 47.160156 L 76.207031 47.359375 L 76.082031 46.367188 L 78.121094 46.179688 L 78.011719 45.640625 L 75.402344 45.925781 M 67.210938 48 L 69.875 48.90625 L 70.027344 48.382812 L 68.054688 47.710938 L 68.453125 46.679688 L 70.226562 47.300781 L 70.371094 46.804688 L 68.636719 46.199219 L 69 45.246094 L 70.898438 45.945312 L 71.050781 45.433594 L 68.582031 44.546875 M 67.265625 45.878906 L 65.863281 45.070312 L 65.570312 45.457031 L 66.480469 45.988281 C 66.097656 46.476562 65.488281 46.597656 64.90625 46.222656 C 64.210938 45.773438 64.34375 45.011719 64.765625 44.453125 C 65.1875 43.890625 65.882812 43.546875 66.582031 43.992188 C 66.992188 44.25 67.222656 44.6875 66.984375 45.105469 L 67.570312 45.410156 C 67.980469 44.695312 67.609375 44.023438 66.894531 43.574219 C 65.917969 42.953125 64.820312 43.253906 64.195312 44.089844 C 63.566406 44.925781 63.613281 46.019531 64.589844 46.640625 C 64.992188 46.890625 65.363281 46.941406 65.902344 46.824219 L 65.808594 47.335938 L 66.175781 47.53125 M 70.988281 49.175781 L 71.644531 49.304688 L 72.171875 46.636719 L 72.1875 46.636719 L 73.769531 49.542969 L 74.507812 49.578125 L 74.695312 45.921875 L 74.078125 45.90625 L 73.953125 48.589844 L 73.945312 48.585938 L 72.371094 45.703125 L 71.667969 45.570312 "/>
<path style="fill:none;stroke-width:0.4;stroke-linecap:butt;stroke-linejoin:miter;stroke:rgb(13.725491%,12.156863%,12.54902%);stroke-opacity:1;stroke-miterlimit:2.613;" d="M 59.998564 98.093405 C 66.490469 98.093405 71.789699 92.793564 71.789699 86.297723 C 71.789699 79.805704 66.490469 74.505862 59.998564 74.505862 C 53.499705 74.505862 48.207429 79.805704 48.207429 86.297723 C 48.207429 92.793564 53.499705 98.093405 59.998564 98.093405 Z M 59.998564 98.093405 " transform="matrix(1.123394,0,0,-1.022289,7.597957,121.158695)"/>
<path style=" stroke:none;fill-rule:nonzero;fill:rgb(93.333334%,15.294118%,13.333334%);fill-opacity:1;" d="M 72.191406 30.378906 L 72.191406 24.238281 L 77.808594 24.238281 L 77.808594 30.378906 L 84.554688 30.378906 L 84.554688 35.496094 L 77.808594 35.496094 L 77.808594 41.632812 L 72.191406 41.632812 L 72.191406 35.496094 L 65.441406 35.496094 L 65.441406 30.378906 "/>
<path style=" stroke:none;fill-rule:nonzero;fill:rgb(13.725491%,12.156863%,12.54902%);fill-opacity:1;" d="M 46.183594 75.441406 L 48.601562 75.441406 L 48.601562 58.914062 L 46.183594 58.914062 Z M 65.4375 63.890625 C 64.929688 61.554688 62.867188 60.375 60.351562 60.375 C 56.023438 60.375 54.195312 63.613281 54.195312 67.0625 C 54.195312 70.835938 56.023438 73.980469 60.375 73.980469 C 63.554688 73.980469 65.386719 71.945312 65.617188 69.214844 L 68.03125 69.214844 C 67.574219 73.332031 64.75 75.832031 60.171875 75.832031 C 54.527344 75.832031 51.777344 72.039062 51.777344 67.222656 C 51.777344 62.433594 54.78125 58.519531 60.375 58.519531 C 64.164062 58.519531 67.292969 60.375 67.851562 63.890625 M 71.03125 75.441406 L 73.445312 75.441406 L 73.445312 68.382812 L 79.347656 68.382812 C 81.6875 68.382812 82.121094 69.746094 82.375 71.367188 C 82.730469 72.988281 82.351562 74.769531 83.035156 75.441406 L 85.730469 75.441406 C 84.714844 74.304688 84.816406 72.5 84.664062 70.878906 C 84.484375 69.261719 84.054688 67.847656 81.941406 67.476562 L 81.941406 67.429688 C 84.128906 66.875 85.097656 65.234375 85.097656 63.242188 C 85.097656 60.601562 82.984375 58.914062 79.578125 58.914062 L 71.03125 58.914062 Z M 73.445312 66.527344 L 73.445312 60.765625 L 79.449219 60.765625 C 81.714844 60.765625 82.679688 61.96875 82.679688 63.589844 C 82.679688 65.996094 80.746094 66.527344 78.484375 66.527344 M 101.222656 63.890625 C 100.710938 61.554688 98.652344 60.375 96.132812 60.375 C 91.808594 60.375 89.980469 63.613281 89.980469 67.0625 C 89.980469 70.835938 91.808594 73.980469 96.160156 73.980469 C 99.339844 73.980469 101.171875 71.945312 101.398438 69.214844 L 103.816406 69.214844 C 103.359375 73.332031 100.535156 75.832031 95.957031 75.832031 C 90.308594 75.832031 87.5625 72.039062 87.5625 67.222656 C 87.5625 62.433594 90.566406 58.519531 96.160156 58.519531 C 99.949219 58.519531 103.078125 60.375 103.636719 63.890625 "/>
</g>
</svg>
