<?xml version="1.0" encoding="UTF-8"?>
<svg xmlns="http://www.w3.org/2000/svg" xmlns:xlink="http://www.w3.org/1999/xlink" width="150px" height="91px" viewBox="0 0 150 91" version="1.1">
<g id="surface1">
<path style=" stroke:none;fill-rule:nonzero;fill:rgb(47.843137%,72.549021%,16.078432%);fill-opacity:1;" d="M 67.027344 45.5 C 67.027344 70.640625 61.667969 91 55.054688 91 C 48.441406 91 43.085938 70.640625 43.085938 45.5 C 43.085938 20.359375 48.441406 0 55.054688 0 C 61.667969 0 67.027344 20.359375 67.027344 45.5 Z M 50.289062 35.300781 L 52.476562 35.300781 C 52.542969 35.300781 52.589844 35.085938 52.597656 34.839844 C 52.777344 30.273438 53.808594 26.78125 55.054688 26.78125 C 56.304688 26.78125 57.335938 30.273438 57.515625 34.839844 C 57.523438 35.085938 57.578125 35.300781 57.644531 35.300781 L 59.820312 35.300781 C 59.886719 35.300781 59.945312 35.085938 59.945312 34.839844 C 59.757812 25.210938 57.636719 17.613281 55.054688 17.613281 C 52.476562 17.613281 50.355469 25.210938 50.167969 34.839844 C 50.167969 35.085938 50.226562 35.300781 50.289062 35.300781 Z M 57.410156 52.558594 C 58.828125 49.601562 59.820312 44.074219 59.945312 37.621094 C 59.945312 37.371094 59.886719 37.15625 59.820312 37.15625 L 57.636719 37.15625 C 57.570312 37.15625 57.523438 37.371094 57.515625 37.621094 C 57.335938 42.183594 56.304688 45.679688 55.054688 45.679688 C 53.808594 45.679688 52.777344 42.183594 52.597656 37.621094 C 52.589844 37.335938 52.542969 37.15625 52.476562 37.15625 L 50.289062 37.15625 C 50.226562 37.15625 50.167969 37.371094 50.167969 37.621094 C 50.289062 44.074219 51.285156 49.601562 52.703125 52.558594 C 51.21875 55.664062 50.195312 61.582031 50.148438 68.429688 C 50.148438 68.679688 50.207031 68.890625 50.273438 68.890625 L 52.449219 68.890625 C 52.515625 68.890625 52.570312 68.679688 52.570312 68.429688 C 52.636719 63.4375 53.722656 59.441406 55.054688 59.441406 C 56.386719 59.441406 57.476562 63.4375 57.542969 68.429688 C 57.542969 68.679688 57.597656 68.890625 57.664062 68.890625 L 59.839844 68.890625 C 59.90625 68.890625 59.960938 68.679688 59.960938 68.429688 C 59.914062 61.582031 58.894531 55.664062 57.410156 52.558594 Z M 76.574219 50.421875 C 76.574219 53.167969 75.835938 54.09375 75.402344 54.09375 C 74.972656 54.09375 74.230469 53.167969 74.230469 50.421875 L 74.230469 35.515625 C 74.230469 32.769531 74.972656 31.84375 75.402344 31.84375 C 75.835938 31.84375 76.574219 32.769531 76.574219 35.515625 Z M 75.402344 24.640625 C 73.3125 24.675781 72.335938 30.238281 72.335938 34.980469 L 72.335938 50.992188 C 72.335938 55.734375 73.3125 61.296875 75.402344 61.332031 C 77.496094 61.296875 78.472656 55.734375 78.472656 50.992188 L 78.472656 34.980469 C 78.472656 30.238281 77.496094 24.640625 75.402344 24.640625 Z M 88.835938 60.65625 L 88.835938 46.710938 L 91.660156 46.710938 L 91.660156 39.582031 L 88.847656 39.582031 L 88.847656 32.484375 L 92.121094 32.484375 L 92.121094 25.28125 L 86.941406 25.28125 L 86.941406 60.65625 Z M 95.328125 36.335938 L 96.089844 47.460938 L 94.558594 47.460938 Z M 96.980469 60.65625 L 98.863281 60.65625 L 96.398438 25.28125 L 94.191406 25.28125 L 91.761719 60.65625 L 93.660156 60.65625 L 94.089844 54.378906 L 96.558594 54.378906 Z M 83.574219 42.933594 L 85.976562 25.28125 L 83.789062 25.28125 L 82.476562 35.585938 L 81.152344 25.28125 L 78.96875 25.28125 L 81.378906 42.933594 L 78.957031 60.65625 L 81.171875 60.65625 L 82.476562 50.386719 L 83.78125 60.65625 L 85.996094 60.65625 Z M 104.953125 25.28125 L 103.285156 38.902344 L 101.59375 25.28125 L 99.664062 25.28125 L 99.664062 60.65625 L 101.511719 60.65625 L 101.511719 40.542969 L 102.703125 49.957031 L 103.875 49.957031 L 105.066406 40.578125 L 105.066406 60.65625 L 106.914062 60.65625 L 106.914062 25.28125 Z M 104.953125 25.28125 "/>
</g>
</svg>
