<?xml version="1.0" encoding="UTF-8"?>
<svg xmlns="http://www.w3.org/2000/svg" xmlns:xlink="http://www.w3.org/1999/xlink" width="150px" height="91px" viewBox="0 0 150 91" version="1.1">
<g id="surface1">
<path style=" stroke:none;fill-rule:nonzero;fill:rgb(13.725491%,12.156863%,12.54902%);fill-opacity:1;" d="M 19.8125 56.191406 C 19.65625 56.339844 19.445312 56.472656 19.195312 56.582031 C 18.945312 56.667969 18.652344 56.710938 18.355469 56.707031 C 18.011719 56.699219 17.675781 56.648438 17.378906 56.554688 L 16.203125 56.214844 C 15.730469 56.078125 15.238281 55.964844 14.730469 55.875 C 14.105469 55.769531 13.453125 55.71875 12.796875 55.722656 C 11.789062 55.679688 10.78125 55.832031 9.96875 56.152344 C 9.355469 56.441406 9.019531 56.863281 9.054688 57.296875 C 9.035156 57.578125 9.234375 57.855469 9.605469 58.058594 C 10.03125 58.28125 10.527344 58.457031 11.078125 58.582031 C 11.738281 58.738281 12.421875 58.867188 13.121094 58.972656 C 13.855469 59.097656 14.671875 59.234375 15.472656 59.363281 C 16.277344 59.515625 17.0625 59.691406 17.828125 59.890625 C 18.582031 60.089844 19.277344 60.355469 19.878906 60.671875 C 20.503906 61 21.003906 61.390625 21.347656 61.820312 C 21.742188 62.335938 21.933594 62.886719 21.898438 63.445312 C 21.914062 64.121094 21.679688 64.789062 21.214844 65.417969 C 20.769531 66.023438 20.085938 66.570312 19.214844 67.023438 C 18.289062 67.496094 17.191406 67.863281 15.988281 68.101562 C 14.589844 68.371094 13.109375 68.503906 11.621094 68.492188 C 10.707031 68.492188 9.796875 68.441406 8.902344 68.34375 C 7.984375 68.25 7.082031 68.113281 6.210938 67.929688 C 5.363281 67.757812 4.546875 67.546875 3.769531 67.300781 C 3.050781 67.074219 2.382812 66.800781 1.785156 66.484375 L 3.753906 64.832031 C 3.90625 64.703125 4.117188 64.597656 4.363281 64.53125 C 4.621094 64.453125 4.914062 64.410156 5.210938 64.414062 C 5.632812 64.417969 6.046875 64.488281 6.402344 64.613281 C 6.796875 64.746094 7.253906 64.890625 7.761719 65.050781 C 8.316406 65.226562 8.898438 65.371094 9.503906 65.488281 C 10.25 65.628906 11.035156 65.699219 11.828125 65.6875 C 12.828125 65.71875 13.820312 65.570312 14.644531 65.265625 C 15.359375 64.925781 15.730469 64.429688 15.644531 63.921875 C 15.671875 63.605469 15.472656 63.296875 15.089844 63.054688 C 14.679688 62.816406 14.179688 62.625 13.621094 62.5 C 12.960938 62.339844 12.28125 62.210938 11.585938 62.109375 C 10.847656 62 10.046875 61.875 9.246094 61.738281 C 8.4375 61.609375 7.644531 61.453125 6.878906 61.269531 C 6.113281 61.070312 5.417969 60.808594 4.820312 60.488281 C 4.183594 60.136719 3.683594 59.726562 3.351562 59.273438 C 2.953125 58.699219 2.769531 58.089844 2.796875 57.480469 C 2.800781 56.90625 3.019531 56.335938 3.445312 55.808594 C 3.886719 55.257812 4.535156 54.765625 5.355469 54.355469 C 6.25 53.910156 7.300781 53.566406 8.445312 53.335938 C 9.785156 53.066406 11.207031 52.9375 12.636719 52.945312 C 13.496094 52.945312 14.355469 52.980469 15.203125 53.054688 C 16.011719 53.125 16.804688 53.234375 17.578125 53.378906 C 18.300781 53.515625 19.003906 53.6875 19.671875 53.890625 C 20.300781 54.082031 20.882812 54.308594 21.414062 54.566406 Z M 38.640625 68.351562 C 38.203125 68.363281 37.769531 68.320312 37.371094 68.226562 C 37.015625 68.113281 36.753906 67.929688 36.632812 67.71875 L 36.257812 67.125 C 35.757812 67.347656 35.28125 67.546875 34.789062 67.714844 C 34.335938 67.882812 33.859375 68.023438 33.363281 68.144531 C 32.859375 68.265625 32.335938 68.355469 31.796875 68.410156 C 31.1875 68.46875 30.570312 68.496094 29.949219 68.496094 C 29.117188 68.503906 28.285156 68.4375 27.488281 68.304688 C 26.792969 68.195312 26.148438 68.007812 25.605469 67.75 C 25.078125 67.5 24.667969 67.191406 24.40625 66.839844 C 24.113281 66.441406 23.972656 66.011719 23.988281 65.582031 C 23.992188 65.175781 24.175781 64.773438 24.523438 64.414062 C 24.953125 63.972656 25.59375 63.601562 26.378906 63.339844 C 27.46875 62.964844 28.671875 62.6875 29.9375 62.527344 C 31.78125 62.285156 33.675781 62.179688 35.574219 62.203125 L 35.574219 61.75 C 35.652344 61.265625 35.390625 60.785156 34.839844 60.402344 C 34.304688 60.113281 33.5625 59.960938 32.804688 59.988281 C 32.222656 59.980469 31.640625 60.019531 31.082031 60.109375 C 30.671875 60.179688 30.273438 60.273438 29.890625 60.382812 C 29.539062 60.484375 29.15625 60.578125 28.863281 60.65625 C 28.492188 60.742188 28.085938 60.785156 27.679688 60.777344 C 27.3125 60.785156 26.949219 60.730469 26.640625 60.621094 C 26.359375 60.519531 26.125 60.386719 25.957031 60.230469 L 24.890625 59.246094 C 26.054688 58.695312 27.410156 58.269531 28.878906 57.992188 C 30.386719 57.71875 31.972656 57.589844 33.566406 57.601562 C 34.675781 57.59375 35.777344 57.699219 36.808594 57.910156 C 37.730469 58.101562 38.566406 58.398438 39.257812 58.773438 C 39.953125 59.152344 40.496094 59.601562 40.847656 60.097656 C 41.210938 60.632812 41.394531 61.195312 41.382812 61.765625 L 41.382812 68.34375 Z M 31.832031 66.429688 C 32.523438 66.441406 33.207031 66.367188 33.839844 66.21875 C 34.492188 66.046875 35.082031 65.8125 35.582031 65.527344 L 35.582031 64.089844 C 34.597656 64.078125 33.613281 64.117188 32.640625 64.210938 C 32.011719 64.265625 31.402344 64.371094 30.824219 64.519531 C 30.449219 64.605469 30.125 64.75 29.898438 64.933594 C 29.726562 65.089844 29.632812 65.265625 29.632812 65.445312 C 29.566406 65.742188 29.777344 66.03125 30.195312 66.226562 C 30.691406 66.390625 31.277344 66.460938 31.863281 66.429688 Z M 56.058594 68.351562 L 50.667969 68.351562 L 42.988281 57.808594 L 47.917969 57.808594 C 48.292969 57.804688 48.660156 57.859375 48.980469 57.964844 C 49.25 58.054688 49.457031 58.195312 49.566406 58.355469 L 52.316406 63.078125 C 52.53125 63.46875 52.734375 63.859375 52.933594 64.207031 C 53.132812 64.554688 53.300781 64.933594 53.441406 65.300781 C 53.582031 64.933594 53.757812 64.574219 53.957031 64.207031 C 54.15625 63.839844 54.375 63.464844 54.609375 63.078125 L 57.476562 58.355469 C 57.585938 58.195312 57.789062 58.058594 58.050781 57.964844 C 58.34375 57.859375 58.691406 57.804688 59.042969 57.808594 L 63.75 57.808594 Z M 74.226562 57.660156 C 75.453125 57.652344 76.675781 57.761719 77.828125 57.984375 C 78.882812 58.1875 79.839844 58.511719 80.636719 58.929688 C 81.445312 59.359375 82.070312 59.875 82.476562 60.445312 C 82.933594 61.097656 83.15625 61.789062 83.136719 62.484375 C 83.144531 62.675781 83.125 62.871094 83.078125 63.0625 C 83.054688 63.183594 82.984375 63.304688 82.871094 63.417969 C 82.777344 63.5 82.632812 63.5625 82.460938 63.601562 C 82.246094 63.636719 82.023438 63.652344 81.800781 63.652344 L 70.359375 63.652344 C 70.417969 64.363281 70.953125 65.042969 71.875 65.5625 C 72.742188 65.972656 73.871094 66.183594 75.027344 66.15625 C 75.628906 66.164062 76.230469 66.121094 76.808594 66.023438 C 77.265625 65.945312 77.710938 65.847656 78.136719 65.730469 C 78.519531 65.621094 78.871094 65.523438 79.203125 65.4375 C 79.519531 65.351562 79.871094 65.304688 80.226562 65.304688 C 80.648438 65.292969 81.054688 65.394531 81.300781 65.578125 L 83.019531 66.703125 C 82.449219 67.058594 81.78125 67.367188 81.042969 67.613281 C 80.347656 67.84375 79.609375 68.027344 78.835938 68.160156 C 78.121094 68.289062 77.378906 68.382812 76.628906 68.433594 C 75.921875 68.484375 75.210938 68.511719 74.5 68.507812 C 73.164062 68.515625 71.839844 68.394531 70.585938 68.148438 C 69.394531 67.917969 68.304688 67.550781 67.394531 67.078125 C 66.453125 66.578125 65.714844 65.972656 65.234375 65.308594 C 64.679688 64.527344 64.410156 63.691406 64.441406 62.855469 C 64.433594 62.171875 64.667969 61.492188 65.125 60.855469 C 66.003906 59.597656 67.824219 58.589844 70.152344 58.074219 C 71.441406 57.785156 72.828125 57.644531 74.226562 57.660156 Z M 74.34375 59.832031 C 73.363281 59.800781 72.398438 59.984375 71.683594 60.34375 C 70.984375 60.753906 70.542969 61.273438 70.425781 61.824219 L 77.820312 61.824219 C 77.824219 61.574219 77.761719 61.332031 77.636719 61.09375 C 77.523438 60.863281 77.320312 60.644531 77.050781 60.457031 C 76.757812 60.265625 76.386719 60.109375 75.96875 60.003906 C 75.457031 59.882812 74.898438 59.824219 74.335938 59.832031 Z M 101.0625 68.511719 C 100.214844 68.519531 99.367188 68.445312 98.570312 68.292969 C 97.179688 68.035156 96.09375 67.449219 95.628906 66.703125 C 95.363281 66.296875 95.230469 65.867188 95.238281 65.433594 L 95.238281 59.996094 L 93.5625 59.996094 C 92.972656 60.007812 92.476562 59.761719 92.453125 59.449219 C 92.449219 59.421875 92.449219 59.398438 92.453125 59.375 L 92.453125 58.144531 L 95.605469 57.816406 L 96.777344 55.25 C 96.902344 54.929688 97.46875 54.71875 98.078125 54.761719 L 101.171875 54.761719 L 101.171875 57.839844 L 105.988281 57.839844 L 105.988281 59.992188 L 101.171875 59.992188 L 101.171875 65.21875 C 101.160156 65.4375 101.273438 65.648438 101.503906 65.824219 C 101.734375 65.984375 102.097656 66.074219 102.472656 66.0625 C 102.65625 66.066406 102.839844 66.050781 103.019531 66.023438 C 103.148438 66.003906 103.277344 65.980469 103.398438 65.945312 L 103.703125 65.863281 C 103.808594 65.839844 103.921875 65.828125 104.039062 65.828125 C 104.191406 65.824219 104.34375 65.847656 104.464844 65.894531 C 104.601562 65.953125 104.714844 66.023438 104.804688 66.101562 L 106.597656 67.59375 C 105.820312 67.902344 104.949219 68.136719 104.019531 68.28125 C 103.058594 68.433594 102.0625 68.511719 101.0625 68.511719 Z M 109.320312 68.351562 L 109.320312 53.148438 L 115.246094 53.148438 L 115.246094 58.746094 C 115.945312 58.425781 116.726562 58.164062 117.566406 57.964844 C 118.515625 57.753906 119.535156 57.652344 120.5625 57.667969 C 121.546875 57.65625 122.527344 57.757812 123.433594 57.964844 C 124.246094 58.15625 124.96875 58.441406 125.546875 58.800781 C 126.136719 59.171875 126.578125 59.605469 126.847656 60.070312 C 127.148438 60.585938 127.296875 61.125 127.289062 61.667969 L 127.289062 68.359375 L 121.363281 68.359375 L 121.363281 61.660156 C 121.414062 61.226562 121.175781 60.800781 120.691406 60.457031 C 120.199219 60.15625 119.46875 60 118.722656 60.027344 C 118.085938 60.023438 117.457031 60.101562 116.882812 60.25 C 116.289062 60.40625 115.734375 60.609375 115.246094 60.851562 L 115.246094 68.351562 Z M 140.167969 57.660156 C 141.398438 57.652344 142.617188 57.761719 143.773438 57.984375 C 144.824219 58.1875 145.785156 58.511719 146.582031 58.929688 C 147.386719 59.359375 148.015625 59.875 148.417969 60.445312 C 148.878906 61.09375 149.105469 61.789062 149.082031 62.484375 C 149.085938 62.675781 149.066406 62.871094 149.019531 63.0625 C 149 63.1875 148.929688 63.308594 148.816406 63.417969 C 148.71875 63.5 148.574219 63.5625 148.402344 63.601562 C 148.191406 63.636719 147.964844 63.652344 147.742188 63.652344 L 136.308594 63.652344 C 136.351562 64.363281 136.875 65.039062 137.78125 65.5625 C 138.648438 65.96875 139.777344 66.183594 140.933594 66.15625 C 141.535156 66.164062 142.136719 66.121094 142.714844 66.023438 C 143.171875 65.945312 143.617188 65.847656 144.042969 65.730469 L 145.109375 65.433594 C 145.429688 65.347656 145.78125 65.304688 146.140625 65.300781 C 146.558594 65.292969 146.960938 65.394531 147.207031 65.574219 L 148.925781 66.703125 C 148.355469 67.058594 147.691406 67.367188 146.949219 67.613281 C 146.257812 67.84375 145.515625 68.027344 144.742188 68.160156 C 144.011719 68.289062 143.261719 68.382812 142.5 68.433594 C 141.792969 68.484375 141.082031 68.507812 140.367188 68.507812 C 139.035156 68.515625 137.714844 68.394531 136.464844 68.148438 C 135.269531 67.917969 134.179688 67.550781 133.273438 67.078125 C 132.324219 66.578125 131.589844 65.972656 131.109375 65.308594 C 130.554688 64.527344 130.285156 63.691406 130.316406 62.855469 C 130.308594 62.171875 130.539062 61.492188 130.992188 60.855469 C 131.875 59.597656 133.695312 58.589844 136.023438 58.070312 C 137.335938 57.78125 138.75 57.640625 140.167969 57.660156 Z M 140.285156 59.832031 C 139.304688 59.800781 138.34375 59.984375 137.625 60.34375 C 136.925781 60.753906 136.488281 61.273438 136.367188 61.824219 L 143.777344 61.824219 C 143.78125 61.574219 143.71875 61.332031 143.59375 61.09375 C 143.484375 60.859375 143.28125 60.644531 143.007812 60.457031 C 142.714844 60.265625 142.34375 60.109375 141.925781 60.003906 C 141.414062 59.882812 140.859375 59.824219 140.300781 59.832031 Z M 20.996094 85.183594 C 21.160156 85.183594 21.320312 85.199219 21.472656 85.230469 C 21.644531 85.265625 21.796875 85.320312 21.921875 85.394531 L 24.5625 86.863281 C 23.429688 87.65625 21.9375 88.28125 20.222656 88.679688 C 18.265625 89.109375 16.164062 89.320312 14.046875 89.292969 C 12.03125 89.3125 10.027344 89.109375 8.164062 88.699219 C 6.492188 88.332031 4.984375 87.773438 3.753906 87.066406 C 2.527344 86.355469 1.585938 85.515625 0.988281 84.601562 C 0.332031 83.605469 0 82.554688 0.0195312 81.5 C 0 80.429688 0.375 79.367188 1.121094 78.375 C 2.539062 76.496094 5.375 75.019531 8.9375 74.300781 C 10.882812 73.910156 12.945312 73.714844 15.027344 73.726562 C 16.046875 73.722656 17.066406 73.773438 18.070312 73.878906 C 18.980469 73.972656 19.875 74.113281 20.738281 74.296875 C 21.535156 74.46875 22.300781 74.679688 23.015625 74.933594 C 23.691406 75.171875 24.3125 75.445312 24.871094 75.753906 L 22.664062 77.355469 C 22.515625 77.457031 22.339844 77.546875 22.148438 77.625 C 21.90625 77.710938 21.613281 77.753906 21.320312 77.742188 C 21.085938 77.742188 20.859375 77.714844 20.648438 77.660156 C 20.421875 77.597656 20.199219 77.53125 19.980469 77.457031 L 19.203125 77.195312 C 18.886719 77.089844 18.550781 77.003906 18.203125 76.933594 C 17.761719 76.84375 17.304688 76.777344 16.839844 76.730469 C 16.242188 76.667969 15.628906 76.640625 15.019531 76.644531 C 13.882812 76.636719 12.757812 76.753906 11.710938 76.984375 C 10.734375 77.207031 9.859375 77.539062 9.144531 77.957031 C 8.398438 78.40625 7.828125 78.925781 7.46875 79.492188 C 7.054688 80.140625 6.851562 80.824219 6.863281 81.511719 C 6.84375 82.214844 7.046875 82.917969 7.46875 83.589844 C 7.820312 84.152344 8.375 84.671875 9.097656 85.125 C 9.769531 85.527344 10.589844 85.847656 11.511719 86.066406 C 12.4375 86.285156 13.441406 86.394531 14.453125 86.390625 C 15.003906 86.390625 15.558594 86.375 16.105469 86.34375 C 16.578125 86.316406 17.042969 86.265625 17.496094 86.183594 C 17.921875 86.105469 18.328125 86.007812 18.714844 85.886719 C 19.128906 85.753906 19.519531 85.601562 19.886719 85.433594 C 20.042969 85.363281 20.214844 85.304688 20.398438 85.261719 C 20.585938 85.210938 20.789062 85.183594 20.996094 85.183594 Z M 27.695312 89.125 L 27.695312 73.921875 L 33.621094 73.921875 L 33.621094 79.519531 C 34.316406 79.199219 35.101562 78.9375 35.941406 78.738281 C 36.890625 78.527344 37.910156 78.429688 38.933594 78.453125 C 39.921875 78.441406 40.90625 78.542969 41.808594 78.753906 C 42.625 78.941406 43.34375 79.226562 43.921875 79.585938 C 44.523438 79.949219 44.980469 80.375 45.257812 80.835938 C 45.558594 81.351562 45.707031 81.890625 45.699219 82.433594 L 45.699219 89.125 L 39.738281 89.125 L 39.738281 82.433594 C 39.785156 82.003906 39.546875 81.578125 39.066406 81.230469 C 38.574219 80.929688 37.84375 80.769531 37.097656 80.796875 C 36.460938 80.792969 35.832031 80.871094 35.257812 81.019531 C 34.660156 81.175781 34.105469 81.378906 33.613281 81.621094 L 33.613281 89.121094 Z M 57.09375 75.71875 C 57.097656 75.960938 57 76.203125 56.808594 76.425781 C 56.621094 76.644531 56.351562 76.839844 56.023438 77.003906 C 55.6875 77.171875 55.292969 77.304688 54.867188 77.394531 C 54.421875 77.496094 53.945312 77.542969 53.464844 77.542969 C 52.996094 77.546875 52.53125 77.496094 52.101562 77.394531 C 51.691406 77.300781 51.3125 77.167969 50.984375 77.003906 C 50.671875 76.835938 50.421875 76.640625 50.25 76.425781 C 50.066406 76.203125 49.972656 75.960938 49.976562 75.71875 C 49.972656 75.46875 50.066406 75.222656 50.25 74.996094 C 50.425781 74.777344 50.675781 74.578125 50.984375 74.410156 C 51.308594 74.246094 51.6875 74.113281 52.101562 74.019531 C 52.535156 73.925781 52.996094 73.878906 53.464844 73.878906 C 53.945312 73.875 54.421875 73.925781 54.867188 74.019531 C 55.726562 74.203125 56.421875 74.554688 56.808594 75.003906 C 56.996094 75.230469 57.09375 75.472656 57.09375 75.71875 Z M 56.410156 78.601562 L 56.410156 89.144531 L 50.476562 89.144531 L 50.476562 78.601562 Z M 67.800781 73.921875 L 67.800781 89.125 L 61.875 89.125 L 61.875 73.921875 Z M 86.761719 89.125 C 86.433594 89.132812 86.113281 89.085938 85.835938 88.992188 C 85.578125 88.902344 85.390625 88.761719 85.304688 88.601562 L 84.851562 87.800781 C 84.464844 88.019531 84.046875 88.222656 83.609375 88.410156 C 83.171875 88.59375 82.703125 88.753906 82.203125 88.882812 C 81.683594 89.019531 81.140625 89.121094 80.578125 89.1875 C 79.960938 89.261719 79.328125 89.296875 78.695312 89.292969 C 77.699219 89.296875 76.714844 89.171875 75.828125 88.929688 C 74.925781 88.675781 74.148438 88.316406 73.550781 87.875 C 72.875 87.363281 72.378906 86.789062 72.078125 86.183594 C 71.695312 85.441406 71.515625 84.675781 71.535156 83.90625 C 71.519531 83.164062 71.726562 82.425781 72.144531 81.71875 C 72.515625 81.082031 73.101562 80.492188 73.878906 79.972656 C 74.601562 79.480469 75.519531 79.082031 76.5625 78.800781 C 77.636719 78.519531 78.820312 78.375 80.019531 78.382812 C 80.90625 78.371094 81.789062 78.453125 82.617188 78.621094 C 83.308594 78.777344 83.957031 78.988281 84.535156 79.246094 L 84.535156 73.925781 L 90.460938 73.925781 L 90.460938 89.125 Z M 80.753906 86.867188 C 81.152344 86.871094 81.546875 86.851562 81.929688 86.804688 C 82.601562 86.722656 83.21875 86.554688 83.734375 86.308594 C 83.996094 86.179688 84.242188 86.035156 84.46875 85.886719 L 84.46875 81.417969 C 84.066406 81.175781 83.5625 80.984375 82.996094 80.867188 C 82.476562 80.757812 81.921875 80.707031 81.367188 80.710938 C 80.84375 80.707031 80.324219 80.765625 79.851562 80.882812 C 79.371094 81.007812 78.957031 81.199219 78.660156 81.4375 C 78.285156 81.738281 78.015625 82.070312 77.867188 82.425781 C 77.660156 82.90625 77.5625 83.402344 77.578125 83.898438 C 77.5625 84.367188 77.640625 84.835938 77.808594 85.300781 C 77.917969 85.621094 78.136719 85.933594 78.445312 86.214844 C 78.679688 86.429688 79.019531 86.605469 79.433594 86.71875 C 79.84375 86.824219 80.296875 86.875 80.753906 86.867188 Z M 95.253906 89.125 L 95.253906 78.582031 L 98.769531 78.582031 C 99.015625 78.578125 99.261719 78.589844 99.503906 78.621094 C 99.6875 78.640625 99.859375 78.683594 100.003906 78.746094 C 100.140625 78.808594 100.246094 78.886719 100.3125 78.976562 C 100.390625 79.085938 100.449219 79.203125 100.488281 79.320312 L 100.8125 80.304688 C 101.457031 79.757812 102.289062 79.277344 103.261719 78.894531 C 104.109375 78.558594 105.140625 78.375 106.203125 78.375 C 106.992188 78.351562 107.769531 78.472656 108.40625 78.722656 L 107.671875 81.035156 C 107.644531 81.152344 107.535156 81.257812 107.363281 81.335938 C 107.183594 81.398438 106.96875 81.425781 106.753906 81.421875 C 106.503906 81.417969 106.257812 81.402344 106.019531 81.375 C 105.652344 81.34375 105.277344 81.328125 104.90625 81.332031 C 103.355469 81.332031 102.128906 81.769531 101.230469 82.652344 L 101.230469 89.105469 Z M 119.214844 78.453125 C 120.441406 78.445312 121.664062 78.554688 122.816406 78.777344 C 123.871094 78.980469 124.832031 79.300781 125.625 79.722656 C 126.4375 80.152344 127.066406 80.671875 127.464844 81.242188 C 127.925781 81.890625 128.152344 82.582031 128.125 83.277344 C 128.132812 83.46875 128.117188 83.664062 128.074219 83.855469 C 128.046875 83.980469 127.976562 84.097656 127.863281 84.210938 C 127.769531 84.292969 127.621094 84.359375 127.449219 84.394531 C 127.234375 84.429688 127.011719 84.445312 126.789062 84.445312 L 115.355469 84.445312 C 115.40625 85.15625 115.945312 85.839844 116.871094 86.355469 C 117.738281 86.765625 118.867188 86.976562 120.023438 86.949219 C 120.625 86.957031 121.222656 86.914062 121.796875 86.816406 C 122.253906 86.742188 122.699219 86.644531 123.125 86.523438 L 124.199219 86.226562 C 124.515625 86.140625 124.867188 86.097656 125.222656 86.097656 C 125.644531 86.085938 126.046875 86.1875 126.289062 86.371094 L 128.007812 87.496094 C 127.441406 87.851562 126.773438 88.160156 126.03125 88.40625 C 125.339844 88.636719 124.597656 88.820312 123.824219 88.953125 C 123.109375 89.082031 122.371094 89.175781 121.621094 89.226562 C 120.914062 89.277344 120.199219 89.300781 119.488281 89.300781 C 118.152344 89.3125 116.828125 89.1875 115.574219 88.941406 C 114.378906 88.710938 113.289062 88.347656 112.386719 87.871094 C 111.4375 87.371094 110.703125 86.765625 110.222656 86.101562 C 109.667969 85.320312 109.398438 84.484375 109.429688 83.648438 C 109.421875 82.964844 109.652344 82.285156 110.105469 81.648438 C 110.972656 80.386719 112.78125 79.371094 115.105469 78.84375 C 116.410156 78.5625 117.808594 78.429688 119.214844 78.453125 Z M 119.332031 80.625 C 118.351562 80.59375 117.390625 80.78125 116.679688 81.140625 C 115.976562 81.550781 115.535156 82.066406 115.414062 82.617188 L 122.808594 82.617188 C 122.8125 82.367188 122.75 82.125 122.625 81.886719 C 122.515625 81.65625 122.3125 81.4375 122.039062 81.25 C 121.757812 81.058594 121.398438 80.902344 120.988281 80.796875 C 120.472656 80.664062 119.90625 80.597656 119.332031 80.605469 Z M 132.015625 89.125 L 132.015625 78.582031 L 135.691406 78.582031 C 136.019531 78.574219 136.339844 78.617188 136.617188 78.710938 C 136.871094 78.804688 137.058594 78.941406 137.148438 79.101562 L 137.492188 79.710938 C 137.867188 79.523438 138.265625 79.347656 138.675781 79.183594 C 139.082031 79.019531 139.523438 78.882812 139.984375 78.769531 C 140.46875 78.65625 140.976562 78.566406 141.492188 78.507812 C 142.074219 78.441406 142.667969 78.40625 143.265625 78.410156 C 144.253906 78.398438 145.234375 78.5 146.140625 78.710938 C 146.953125 78.898438 147.679688 79.183594 148.257812 79.542969 C 148.84375 79.914062 149.285156 80.347656 149.550781 80.8125 C 149.851562 81.328125 150 81.867188 149.992188 82.410156 L 149.992188 89.101562 L 144.066406 89.101562 L 144.066406 82.433594 C 144.117188 82 143.878906 81.574219 143.398438 81.230469 C 142.902344 80.933594 142.179688 80.773438 141.433594 80.800781 C 140.796875 80.796875 140.167969 80.875 139.597656 81.023438 C 138.996094 81.179688 138.441406 81.382812 137.949219 81.625 L 137.949219 89.125 Z M 109.707031 12.949219 C 113.222656 10.746094 114.773438 9.730469 114.4375 9.175781 C 113.996094 8.675781 113.164062 8.300781 112.164062 8.152344 C 110.839844 7.886719 109.03125 7.761719 108.121094 8.046875 C 107.390625 8.378906 106.726562 8.746094 106.136719 9.148438 L 105.023438 9.816406 C 104.289062 9.425781 103.554688 9.035156 102.820312 8.710938 C 97.441406 6.226562 90.847656 4.601562 83.800781 4.023438 C 80.945312 2.410156 77.183594 1.679688 73.558594 1.96875 C 70.390625 2.257812 67.609375 3.253906 65.917969 4.703125 C 58.660156 5.886719 52.136719 8.082031 47.023438 11.0625 C 45.875 10.878906 43.347656 11.117188 41.757812 11.578125 C 41.007812 11.742188 40.4375 12.082031 40.214844 12.496094 C 40.125 12.753906 40.324219 13.164062 42.300781 14.359375 C 37.246094 18.613281 35.066406 23.65625 36.125 28.65625 C 37.542969 35.492188 45.457031 41.460938 57.089844 44.472656 C 70.882812 48.027344 87.089844 47.738281 100.402344 43.695312 C 101.484375 43.359375 101.886719 42.636719 101.320312 42.046875 L 101.15625 41.855469 C 98.953125 39.261719 92.335938 31.367188 96.011719 24.160156 C 97.554688 21.152344 102.011719 17.941406 105.855469 15.421875 C 109.953125 18.796875 112.007812 22.757812 111.738281 26.769531 C 111.496094 30.441406 109.148438 33.984375 105.003906 36.925781 C 104.8125 37.046875 104.765625 37.214844 104.878906 37.359375 L 105.296875 37.878906 C 105.484375 38.089844 105.960938 38.1875 106.363281 38.089844 C 106.476562 38.0625 106.574219 38.019531 106.648438 37.96875 C 117.5625 30.601562 118.871094 20.511719 109.707031 12.949219 Z M 61.609375 29.980469 C 60.167969 33.9375 59.835938 37.984375 60.625 41.996094 C 57.800781 41.238281 55.167969 40.296875 52.78125 39.195312 C 46.316406 36.214844 41.957031 32.152344 40.421875 27.679688 C 38.972656 23.488281 40.292969 19.160156 44.15625 15.425781 C 45.625 16.234375 47.375 17.164062 49.226562 18.136719 C 53.75 20.519531 58.875 23.210938 61.367188 25.132812 C 62.835938 26.246094 62.359375 27.652344 61.617188 29.980469 M 100.914062 12.117188 C 92.585938 16.566406 84.738281 18.980469 77.585938 19.269531 C 72.085938 19.488281 66.265625 18.617188 60.273438 16.679688 C 56.296875 15.335938 52.601562 13.773438 49.242188 12.019531 L 49.015625 11.902344 C 53.117188 9.574219 58.308594 7.863281 64.058594 6.945312 C 63.449219 8.175781 63.332031 9.460938 63.710938 10.71875 C 64.292969 12.9375 66.5 14.945312 69.851562 16.308594 C 72.101562 17.242188 74.957031 17.664062 77.792969 17.476562 C 80.625 17.292969 83.207031 16.515625 84.960938 15.320312 C 85.109375 15.21875 85.253906 15.117188 85.386719 15.011719 C 87.792969 13.167969 88.730469 10.898438 88.003906 8.691406 C 87.878906 8.269531 87.703125 7.851562 87.46875 7.441406 C 91.652344 8.289062 95.523438 9.527344 98.894531 11.09375 C 99.628906 11.417969 100.277344 11.757812 100.945312 12.117188 Z M 100.914062 12.117188 "/>
</g>
</svg>
