<svg width="16" height="15" viewBox="0 0 16 15" fill="none" xmlns="http://www.w3.org/2000/svg">
<path d="M10.6666 5.33337C11.7275 5.33337 12.7449 5.7548 13.495 6.50495C14.2452 7.25509 14.6666 8.27251 14.6666 9.33337V14H11.9999V9.33337C11.9999 8.97975 11.8594 8.64061 11.6094 8.39057C11.3593 8.14052 11.0202 8.00004 10.6666 8.00004C10.313 8.00004 9.97382 8.14052 9.72378 8.39057C9.47373 8.64061 9.33325 8.97975 9.33325 9.33337V14H6.66658V9.33337C6.66658 8.27251 7.08801 7.25509 7.83816 6.50495C8.5883 5.7548 9.60572 5.33337 10.6666 5.33337Z" stroke="white" stroke-width="1.6" stroke-linecap="round" stroke-linejoin="round"/>
<path d="M3.99992 6.00004H1.33325V14H3.99992V6.00004Z" stroke="white" stroke-width="1.6" stroke-linecap="round" stroke-linejoin="round"/>
<path d="M2.66659 4.00004C3.40297 4.00004 3.99992 3.40309 3.99992 2.66671C3.99992 1.93033 3.40297 1.33337 2.66659 1.33337C1.93021 1.33337 1.33325 1.93033 1.33325 2.66671C1.33325 3.40309 1.93021 4.00004 2.66659 4.00004Z" stroke="white" stroke-width="1.6" stroke-linecap="round" stroke-linejoin="round"/>
</svg>
