<svg width="35" height="35" viewBox="0 0 35 35" fill="none" xmlns="http://www.w3.org/2000/svg">
<circle cx="17.5" cy="17.5" r="17.5" fill="#C9E4CA"/>
<path d="M17.824 26.408C15.456 26.408 13.648 25.664 12.4 24.176C11.168 22.672 10.552 20.496 10.552 17.648C10.552 15.808 10.888 14.232 11.56 12.92C12.232 11.608 13.152 10.616 14.32 9.944C15.504 9.272 16.824 8.936 18.28 8.936C19.416 8.936 20.4 9.12 21.232 9.488C22.08 9.84 22.856 10.344 23.56 11L21.496 13.136C20.968 12.672 20.472 12.336 20.008 12.128C19.56 11.92 19.048 11.816 18.472 11.816C17.272 11.816 16.328 12.296 15.64 13.256C14.952 14.2 14.608 15.672 14.608 17.672C14.608 19.816 14.864 21.328 15.376 22.208C15.888 23.088 16.712 23.528 17.848 23.528C18.6 23.528 19.288 23.36 19.912 23.024V19.208H17.824L17.44 16.472H23.632V24.728C21.808 25.848 19.872 26.408 17.824 26.408Z" fill="#364958"/>
</svg>
